/* XPM */
static char *_71a3101cbf643aedcfde79d750f0364skt2liCHcUnO0TzC[] = {
/* columns rows colors chars-per-pixel */
"64 64 190 2 ",
"   c #000000",
".  c #0A0305",
"X  c #0D0905",
"o  c #0D0009",
"O  c #0A0A0A",
"+  c #110C06",
"@  c #160F08",
"#  c #13000B",
"$  c #1C130B",
"%  c #131313",
"&  c #1C1B1B",
"*  c #22170D",
"=  c #261A0F",
"-  c #281B0F",
";  c #2D1E11",
":  c #2F2012",
">  c #3A2616",
",  c #3D2917",
"<  c #372616",
"1  c #232323",
"2  c #2B2B2A",
"3  c #343434",
"4  c #442E1A",
"5  c #4C2F1E",
"6  c #4A321C",
"7  c #51371E",
"8  c #55002D",
"9  c #460030",
"0  c #5B0031",
"q  c #59003D",
"w  c #640035",
"e  c #6B0039",
"r  c #75003E",
"t  c #79073D",
"y  c #563A20",
"u  c #5B3D22",
"i  c #5F4223",
"p  c #634226",
"a  c #6D4A2A",
"s  c #694328",
"d  c #734B2C",
"f  c #77512D",
"g  c #7C542F",
"h  c #680046",
"j  c #780040",
"k  c #7A0054",
"l  c #6F067F",
"z  c #73057D",
"x  c #7A0579",
"c  c #781572",
"v  c #632476",
"b  c #414141",
"n  c #555555",
"m  c #5A5A5A",
"M  c #757575",
"N  c #7E7E7E",
"B  c #646464",
"V  c #8F3E3E",
"C  c #B33E3E",
"Z  c #B37B1D",
"A  c #814335",
"S  c #94433F",
"D  c #815630",
"F  c #835932",
"G  c #8C5F35",
"H  c #8A5735",
"J  c #98513E",
"K  c #B35B2E",
"L  c #B34D35",
"P  c #B3413C",
"I  c #B35134",
"U  c #B35830",
"Y  c #A65933",
"T  c #926337",
"R  c #966538",
"E  c #9B693A",
"W  c #B36D25",
"Q  c #B3642A",
"!  c #B37326",
"~  c #A36F3E",
"^  c #A8723F",
"/  c #B37C39",
"(  c #8B004A",
")  c #830045",
"_  c #93004E",
"`  c #8B005E",
"'  c #9D005D",
"]  c #9A0055",
"[  c #A80E4E",
"{  c #B31E4F",
"}  c #A30057",
"|  c #A30059",
" . c #AE025C",
".. c #AC0A53",
"X. c #B3005F",
"o. c #B30B5B",
"O. c #B30F57",
"+. c #B31355",
"@. c #B31B52",
"#. c #B3135B",
"$. c #B31B59",
"%. c #A31545",
"&. c #943E40",
"*. c #9C3B45",
"=. c #9E3747",
"-. c #A72E4E",
";. c #B32F46",
":. c #B3244C",
">. c #B32A49",
",. c #B33244",
"<. c #B33940",
"1. c #B3304B",
"2. c #A8205D",
"3. c #B32456",
"4. c #B32D55",
"5. c #B32058",
"6. c #B33653",
"7. c #B33B52",
"8. c #A93E4B",
"9. c #84076F",
"0. c #95036D",
"q. c #9C026A",
"w. c #92096B",
"e. c #880373",
"r. c #871470",
"t. c #991967",
"y. c #A50166",
"u. c #AC0062",
"i. c #A0016A",
"p. c #B30161",
"a. c #B3006B",
"s. c #A21263",
"d. c #B30179",
"f. c #872B6A",
"g. c #994642",
"h. c #A44548",
"j. c #B34444",
"k. c #B34D4D",
"l. c #B34B40",
"z. c #B35B4A",
"x. c #AC4851",
"c. c #B34350",
"v. c #B36B46",
"b. c #AE7543",
"n. c #A87347",
"m. c #B37344",
"M. c #B37943",
"N. c #BA774C",
"B. c #A66342",
"V. c #B39D0A",
"C. c #B38C13",
"Z. c #B38319",
"A. c #B39212",
"S. c #B39B15",
"D. c #B3921C",
"F. c #B3A506",
"G. c #B3AC03",
"H. c #B3A20A",
"J. c #B5AB0A",
"K. c #B3B000",
"L. c #B39322",
"P. c #B78539",
"I. c #AC8829",
"U. c #3D118A",
"Y. c #2B0B9F",
"T. c #340A9B",
"R. c #3A0A98",
"E. c #3E1A92",
"W. c #3A318F",
"Q. c #24229D",
"!. c #382195",
"~. c #0D0DAD",
"^. c #190CA8",
"/. c #030EB2",
"(. c #191DA3",
"). c #220DA3",
"_. c #4E088F",
"`. c #57078A",
"'. c #5B0788",
"]. c #51088D",
"[. c #440993",
"{. c #4A0890",
"}. c #650683",
"|. c #999999",
" X c gray54",
".X c gray63",
"XX c #B3B3B3",
"oX c gray72",
"OX c #CBCBCB",
"+X c #EBEBEB",
/* pixels */
"                                                                                                                                ",
"                                                                                                                                ",
"                        .                                                                                                       ",
"                  . .   .                                                                                                       ",
"                    .                                                                                                           ",
"                                                                                                                                ",
"                O .                                                                                                             ",
"                . 1 2 %                         . $ $ $ $ $ $ $ $ $ $ $ $ $ $ .                               . O               ",
"                & XXOXn                         = E ^ ^ ^ ^ ^ ^ ^ ^ ^ ^ ^ ^ ^ ,                           . . 2 n 3 .           ",
"                & oXOXm . . .           . @ @ @ > B.v.v.v.v.v.v.v./ / m.v.v.v.5 @ @ @ .                   O   N +X|.%           ",
"              . O 3 b &   . .           = G G G J 5.$.$.$.$.$.$.$.S.S.j.$.$.$.g.G G G 4                   .   B XXM %           ",
"                .     . .               : M.M.M.z.o.X.X.X.X.X.X.o.H.F.<.X.X.X.k.M.M.M.y                   O   % 1 &             ",
"                  .             y E ~ n.P.J.! O.o.X.X.X.X.X.X.X.X.+.+.X.X.X.X.o.o.o.o.8.E E E f     .                           ",
"                            . X p m.m.N.P.H.W X.X.X.X.X.X.X.X.y.y.p.X.X.X.X.X.X.X.X.X.7.m.m.m.H X .           . .               ",
"                  .       . 4 F *.5.5.5.3.;.{ X.X.X.X.X.X.X.p.[.T.y.X.X.X.X.X.X.X.X.X.#.5.5.5.-.F u .   .                       ",
"                            u M.7.X.X.X.X.X.X.X.X.X.X.X.X.X.u.^./.y.X.X.X.X.X.X.X.X.X.X.X.X.X.$.M.f .                           ",
"                        7 d &.4.#.X.X.X.X.X.X.X.@.Q Q X.X.X.p.x z u.X.X.X.X.X.X.X.X.X.x [.}.p.o.4.=.d p .                       ",
"                        D M.7.X.X.X.X.X.X.X.X.X.>.H.V.X.X.X.X.X.X.X.X.X.X.X.X.X.X.X.X.`./.[.p.X.X.3.m.E X                     . ",
"                        D M./ Z <.X.x R.'.X.X.X.O.,.,.X.X.X.X.X.X.W W >.X.X.X.X.X.X.X.0.x 0.X.X.X.3.m.E X                     . ",
"                        D M.L.G.I X.}./.T.X.X.X.X.X.X.X.X.X.X.X.X.V.H.<.X.X.X.X.X.X.X.X.X.X.X.X.X.3.m.E X                       ",
"                    , u *.7.l.K >.X.e.'.z X.X.X.X.X.X.X.X.X.X.X.X.I I @.X.X.X.X.X.>.U >.X.X.X.X.X.1.L.I.i 6                     ",
"                    g M.5.X.X.X.X.X.X.X.X.X.X.X.X.X.X.X.X.X.X.X.X.X.X.X.X.X.X.X.X.I K.I X.X.X.X.X.<.F.J./ E                     ",
"                    g M.5.X.X.X.X.X.X.X.X.X.X.X.p.a.y.w w w w w w w w w w ' a.p.X.;.Q ;.X.X.X.X.X.:.K Q M.E                     ",
"                    g M.5.X.X.X.X.X.X.X.X.X.X.X.p.d.i.                    k d.a.X.X.X.X.X.X.X.X.X.X.X.#.m.E                     ",
"              . > 7 &.c.#.X.X.X.X.X.:.L <.X.X.X.| h q                     9 h ] X.X.X.X.X.X.X.X.X.X.X.o.7.h.7 4 X               ",
"              + g b.3.X.X.X.X.X.X.X.L F.Z X.X.X.( #                           r X.X.X.X.X.X.X.X.X.X.X.X.X.#.b.T *               ",
"              + F M.3.X.0.e.q.X.X.X.C Z.Q X.} ( e o                           0 ( ] X.+.>.@.X.X.X.X.X.X.X.#.M.R *               ",
"              + F M.3.X.T./.'.X.X.X.X.X.X.X.r                                     8 X.K K.W X.p.X.X.X.X.X.#.M.R *               ",
"              + F M.3.X.`.T.z X.X.X.X.X.X.X.r                                     8 X.P Z I p.p.X.X.X.u.e.r.M.R *               ",
"              + F M.3.X.X.X.X.X.X.X.X.X.X.X.r                                     8 X.X.X.p.p.X.X.X.X.q.~.(.M.R *               ",
"              + F M.j.>.O.X.X.X.X.X.X.X.X.X.r                                     8 X.X.X.X.X.X.X.X.X.i.T.E.M.R *               ",
"              + F M.D.V.>.X.X.X.X.X.X.X.X.X.r                                     8 X.X.X.X.X.X.X.X.X.p.i.s.M.R *               ",
"              + F M.S.K.,.X.X.X.X.X.X.X.X.X.r                                     8 X.X.X.X.X.X.X.X.X.X.X.#.M.R *               ",
"              + F M.3.X.X.X.X.X.`./.].u.X.X.r                                     8 X.X.X.P G.Z.X.X.X.X.X.#.M.R *               ",
"              + F M.3.X.X.X.X.X.}.^.}.u.X.X.r                                     8 X.X.X.<.A.W X.X.X.X.@.>.M.R *               ",
"              + F M.3.X.X.X.X.X.y.q.y.X.X.X.r                                     8 X.X.X.o.@.+.X.X.X.@.C.A.M.R *               ",
"              + F M.3.X.u.y.u.X.X.X.X.X.X.o.t o o                             . o 0 X.X.X.X.X.X.X.X.X.@.H.H.M.R *               ",
"              + F M.3.X._.Y.z X.X.X.X.X.>.C.Y ` h o                           q ` ' X.X.X.X.X.X.X.X.X.#./ P.M.R *               ",
"              + F M.3.X.T./.'.X.X.X.X.X.,.K.! d.` o                           k d.a.X.X.X.X.X.X.X.X.X.#.m.M.M.R *               ",
"                X X D v.2.y.u.X.X.X.X.X.X.O.o.p.X.| _                     r }  .p.L H.L X.z ~.R.X.X.X.#.m.E X X                 ",
"                    g M.5.X.X.X.X.X.X.X.X.X.X.X.X.X.} o o o o o o o o o o ) X.X.X.L F.I X.z ~.T.X.X.X.#.m.E                     ",
"                    g M.5.X.X.X.X.X.X.X.X.X.X.X.X.X. .j j j j j j j j j j } X.X.X.@.<.@.X.q.x 9.[ ..X.#.m.E                     ",
"                    g M.5.X.X.X.X.X.X.X.X.X.X.X.X.X.X.X.X.X.X.X.X.X.X.X.X.X.X.X.X.X.X.X.X.X.X. .%.[ X.#.m.E                     ",
"                    : 4 S k.3.X.X.X.,.W I X.X.X.X.X.X.X.X.X.X.K W o.o.L W :.X.X.X.X.X.X.X.X.X.0.U.v x.h.5 >               .     ",
"                        D M.7.X.X.X.I G.Z.X.X.X.X.X.X.X.X.X.X.A.G.+.O.Z K.,.X.X.X.X.X.X.X.X.X.e./.W.n.E X         .             ",
"                        D M.7.X.X.X.{ C ;.X.X.X.q.{._.X.X.X.X.,.C X.X.>.C +.X.X.X.X.X.X.X.X.X.y.z f.b.E X       .     3  XM O   ",
"                        D M.7.X.X.X.X.X.X.X.X.X.e.~.^.X.X.X.X.X.X.X.X.X.X.X.X.X.X.X.X.X.X.X.X.X.X.3.m.E X         . O n +X+X1   ",
"                        6 p V 6.$.X.X.X.X.X.X.X.q.`.'.X.X.X.X.X.X.X.X.X.X.X.X.X.X.X.X.X.X.X.X.o.6.*.s y .           . 3 |..X% . ",
"                            i M.7.p.p.p.X.X.X.X.X.X.X.X.X.X.X.X.X.X.X.X.X.X.X.X.X.X.X.X.X.X.X.$.M.f .                 . % % .   ",
"                            < a g.6.6.6.3.X.X.X.X.X.o.L P O.X.X.X.X.X.X.X.<.L @.X.X.X.$.6.6.6.*.p 4 .               .     . .   ",
"                            . . p M.M.M.z.X.X.X.X.X.+.K.C.@.p.X.X.p.X.X.X.Z K.C X.X.X.7.M.M.M.F                                 ",
"                              . , a a a A 4.4.4.3.X.o.W Y c l y.X.X.p.X.X.L W j.4.4.4.V a a a 7                                 ",
"                                  . . . < m.m.m.z.o.X.o.w.).~.0.p.p.X.X.X.X.o.k.m.m.m.u . . . .                                 ",
"                                        - T T T J $.#.#.t.!.Q.t.#.#.#.#.#.#.#.g.T T T 6                                         ",
"                                                - ~ M.M.M.M.M.M.M.M.M.M.M.M.M.,                                                 ",
"                                                $ f D D D F F F G F F D D D D ;                                                 ",
"                                                  . . . . . . & 3 2 X . . . .                                                   ",
"                                                              2 m b O                                                           ",
"                                                          O . 3 M n O                                                           ",
"                                                                . .                 . O O O                                     ",
"                                                                                    O & & O                                     ",
"                                                                .                   . % % O                                     ",
"                                                                                                                                ",
"                                                                                                                                "
};
