/* XPM */
static char *c6597da4ae8742b1ac4f28df4f17be44BIs02QDHmV1mcLJL[] = {
/* columns rows colors chars-per-pixel */
"64 64 127 2 ",
"   c None",
".  c #000000",
"X  c #03000C",
"o  c #060016",
"O  c #07001A",
"+  c #08001F",
"@  c #0A0025",
"#  c #0D002C",
"$  c #10042F",
"%  c #0E0033",
"&  c #0F003B",
"*  c #120531",
"=  c #150932",
"-  c #190D35",
";  c #10003E",
":  c #1B0D3B",
">  c #1E113B",
",  c #20133E",
"<  c #110041",
"1  c #180747",
"2  c #1E0F40",
"3  c #180748",
"4  c #1C0B4C",
"5  c #1F1041",
"6  c #231445",
"7  c #251844",
"8  c #281A47",
"9  c #251649",
"0  c #27184B",
"q  c #2A1C4A",
"w  c #210F50",
"e  c #251354",
"r  c #2D1D52",
"t  c #291758",
"y  c #2D1B5C",
"u  c #2E204F",
"i  c #2F2150",
"p  c #302252",
"a  c #34245B",
"s  c #3A2A5D",
"d  c #311F61",
"f  c #342163",
"g  c #382667",
"h  c #3A2962",
"j  c #392668",
"k  c #3E2C6A",
"l  c #402E6C",
"z  c #413167",
"x  c #45346C",
"c  c #48376F",
"v  c #4A386F",
"b  c #443173",
"n  c #483576",
"m  c #493676",
"M  c #483672",
"N  c #493871",
"B  c #4A3971",
"V  c #4B3973",
"C  c #4A3875",
"Z  c #4B3875",
"A  c #4D3B75",
"S  c #4C3976",
"D  c #4F3D77",
"F  c #4B3A74",
"G  c #493678",
"H  c #4A3778",
"J  c #4A3778",
"K  c #4C3979",
"L  c #4D3A78",
"P  c #4E3B79",
"I  c #4C387B",
"U  c #4E3C79",
"Y  c #4E3A7D",
"T  c #4F3B7D",
"R  c #4F3D78",
"E  c #513F79",
"W  c #503D7B",
"Q  c #513E7D",
"!  c #523F7C",
"~  c #523F7D",
"^  c #53407F",
"/  c #55417E",
"(  c #53407E",
")  c #503C80",
"_  c #554282",
"`  c #564382",
"'  c #574483",
"]  c #574383",
"[  c #584484",
"{  c #584584",
"}  c #594686",
"|  c #5A4687",
" . c #5B4787",
".. c #5C4889",
"X. c #5D498A",
"o. c #5D498B",
"O. c #5E4A8C",
"+. c #5F4B8D",
"@. c #604C8D",
"#. c #604D8E",
"$. c #614D8E",
"%. c #614D8F",
"&. c #624D8F",
"*. c #614E8F",
"=. c #614D8E",
"-. c #614D90",
";. c #614D91",
":. c #655094",
">. c #655194",
",. c #665194",
"<. c #675296",
"1. c #675396",
"2. c #655093",
"3. c #685397",
"4. c #685497",
"5. c #6A5497",
"6. c #695498",
"7. c #695598",
"8. c #695499",
"9. c #695599",
"0. c #6B5499",
"q. c #6A5599",
"w. c #695699",
"e. c #6A5699",
"r. c #6B5699",
"t. c #6B559A",
"y. c #6A5599",
/* pixels */
"                                                                                                                                ",
"                                                                                                                                ",
"                                                                                                                                ",
"                                                                                                                                ",
"                                                                                                                                ",
"                                    r.r.r.r.r.r.r.r.r.r.r.r.r.r.r.r.r.r.r.r.r.r.r.r.r.r.r.r.                                    ",
"                                    r.r.r.r.r.r.r.r.r.r.r.r.r.r.r.r.r.r.r.r.r.r.r.r.r.r.r.r.                                    ",
"                                r.A p p p p p p p p p p p p p p p p p p p p p p p p p p p p r.r.                                ",
"                                4.c - - - - - - - - - - - - - - - - - - - - - - - - - - - - 4.3.                                ",
"                            r./ s q - - - - - - - = * * * * * * * * * * * * - - - - - - - - s z r.                              ",
"                            r.D - - - - - - - - - = # # # # # # # # # # # # - - - - - - - - - 7 r.r.                            ",
"                        r.E s i - - - - - = * * * : 0 0 0 0 0 0 0 0 0 0 0 9 * * * = - - - - - > s z @.r.                        ",
"                      r.r.N - - - - - - - = # # # 2 h h h h h h h h h h h a # # # $ - - - - - - - q @.r.                        ",
"                    r.N a q - - - - - = $ : r r r h | | | | | | | | | | | ` r r r 6 * * - - - - - > p s @.r.                    ",
"                    r.z - - - - - - - = # : h h h A r.r.r.r.r.r.r.r.r.r.r.>.h h h r # # - - - - - - - 6 @.r.                    ",
"                r.A s 8 - - - - - = * : 0 a ' ' ' H f f f f f f f f f f f g ' ' ' C r 6 = * - - - - - > a s r.r.                ",
"                r.x - - - - - - - = # 6 h M r.r.r.H < < < < < < < < < < < 3 r.r.r...h a * # - - - - - - - - r.r.                ",
"            r.Q z u - - - - - - * : 6 a Q K k k k y < < < < < < < < < < < 1 k k k b Q M 0 6 * = - - - - - - z x 3.r.            ",
"          4.r.c - - - - - - - = # 6 h U r.) < < < < < < < < < < < < < < < < < < < t >.@.k h # # - - - - - - - 7 >.r.            ",
"          4.r.c - - - - - = * : 9 h ^ m j y < & + + + + + + + + + + + + + + + @ < 4 j l Q ^ 9 6 * = - - - - - 7 >.r.            ",
"          4.r.c - - - - - = # : h U r.b < < < % . . . . . . . . . . . . . . . X < < < e -.r.h a # $ - - - - - 7 >.r.            ",
"          4.r.c - - - = * : 0 a ` m f e < % O o . . . . . . . . . . . . . . . . O @ ; 3 f f ` K 0 6 = * - - - 7 >.r.            ",
"          4.r.c - - - * # 5 h C r.b < < < # . . . . . . . . . . . . . . . . . . . o ; < < < r.@.h p * # - - - 7 >.r.            ",
"          4.r.c - - - * # 5 h j k t < % @ o . . . . . . . . . . . . . . . . . . . X + @ ; < k k h p * # - - - 7 >.r.            ",
"          4.r.c - - - * # 5 h r < < < @ . . . . . . . . . . . . . . . . . . . . . . . X & < < 1 h p * # - - - 7 >.r.            ",
"          4.r.c - = = : 6 a U j < < < @ . . . . . . . . . . . . . . . . . . . . . . . X & < < 4 U x 9 5 - = - 7 >.r.            ",
"          4.r.c - * # 6 h K r.K < < < @ . . . . . . . . . . . . . . . . . . . . . . . X & < < w r.@.k a * # - 7 >.r.            ",
"          4.r.c - * # 6 h K r.K < < < @ . . . . . . . . . . . . . . . . . . . . . . . X & < < w r.@.k a * # - 7 >.r.            ",
"          4.r.c - * # 6 h K r.K < < < @ . . . . . . . . . . . . . . . . . . . . . . . X & < < w r.@.k a * # - 7 >.r.            ",
"          4.r.c - * # 6 h K r.K < < < @ . . . . . . . . . . . . . . . . . . . . . . . X & < < w r.@.k a * # - 7 >.r.            ",
"          4.r.c - * # 6 h K r.K < < < @ . . . . . . . . . . . . . . . . . . . . . . . X & < < w r.@.k a * # - 7 >.r.            ",
"          4.r.c - * # 6 h K r.K < < < @ . . . . . . . . . . . . . . . . . . . . . . . X & < < w r.@.k a * # - 7 >.r.            ",
"          4.r.c - * # 6 h K r.K < < < @ . . . . . . . . . . . . . . . . . . . . . . . X & < < w r.@.k a * # - 7 >.r.            ",
"          4.r.c - * # 6 h K r.K < < < @ . . . . . . . . . . . . . . . . . . . . . . . X & < < w r.@.k a * # - 7 >.r.            ",
"          4.r.c - * # 6 h K r.K < < < @ . . . . . . . . . . . . . . . . . . . . . . . X & < < w r.@.k a * # - 7 >.r.            ",
"          4.r.c - * # 6 h K r.K < < < @ . . . . . . . . . . . . . . . . . . . . . . . X & < < w r.@.k a * # - 7 >.r.            ",
"          4.r.c - * # 6 h K r.K < < < @ . . . . . . . . . . . . . . . . . . . . . . . X & < < w r.@.k a * # - 7 >.r.            ",
"          4.r.c - * # 6 h K r.K < < < @ . . . . . . . . . . . . . . . . . . . . . . . X & < < w r.@.k a * # - 7 >.r.            ",
"          4.r.c - * # 6 h K r.K < < < @ . . . . . . . . . . . . . . . . . . . . . . . X & < < w r.@.k a * # - 7 >.r.            ",
"          4.r.c - = $ 5 r k ..b < < < @ . . . . . . . . . . . . . . . . . . . . . . . X & < < 4 ..Q a 0 = $ - 7 >.r.            ",
"          4.r.c - - - * # 5 h r < < < @ . . . . . . . . . . . . . . . . . . . . . . . X & < < 1 h p * # - - - 7 >.r.            ",
"          4.r.c - - - * # 5 h a t 4 < # o X . . . . . . . . . . . . . . . . . . . . o O ; < t y h p * # - - - 7 >.r.            ",
"          4.r.c - - - * # 5 h C r.b < < < # . . . . . . . . . . . . . . . . . . . o ; < < < r.@.h p * # - - - 7 >.r.            ",
"          4.r.c - - - = $ : 0 h | m f e < % O o . . . . . . . . . . . . . . . . O @ ; 1 y f | E 0 6 = * - - - 7 >.r.            ",
"          4.r.c - - - - - = # : h U r.b < < < % . . . . . . . . . . . . . . . X < < < e -.r.h a # $ - - - - - 7 >.r.            ",
"          4.r.c - - - - - = $ : 0 k | m d e < % o o o o o o o o o o o o o o o @ < 3 y g ` | 0 9 $ * - - - - - 7 >.r.            ",
"          4.r.c - - - - - - - = # 6 h K >.Y < < ; ; ; ; ; ; ; ; ; ; ; ; ; ; ; ; < e -.O.l h # * - - - - - - - 7 >.r.            ",
"            r.N 8 , - - - - - = # : a c @.Y e e e 4 < < < < < < < < < < < < e e e f ..| a a # $ - - - - - - 8 p >.r.            ",
"                r.x - - - - - - - = # 6 h M r.r.r.H < < < < < < < < < < < 3 r.r.r...h a * # - - - - - - - - r.r.                ",
"                r.N q 6 - - - - - = $ : r k O.O.O.H e e e e e e e e e e e t O.O.O.^ a 0 * $ - - - - - : 8 q r.r.                ",
"                    r.z - - - - - - - = # : h h h A r.r.r.r.r.r.r.r.r.r.r.>.h h h r # # - - - - - - - 6 @.r.                    ",
"                    r.v p 8 - - - - - = $ : r r r k | | | | | | | | | | | ` r r r 9 * * - - - - - > p a @.r.                    ",
"                      r.r.N - - - - - - - = # # # 2 h h h h h h h h h h h a # # # $ - - - - - - - q @.r.                        ",
"                        r.D i 8 - - - - - = $ $ $ : r r r r r r r r r r r r $ $ $ * - - - - - > i s @.r.                        ",
"                            2.N - - - - - - - - - = * * * * * * * * * * * * - - - - - - - - - 7 2.2.                            ",
"                            r.U , > - - - - - - - = # # # # # # # # # # # # - - - - - - - - , q r.r.                            ",
"                                r.c - - - - - - - - - - - - - - - - - - - - - - - - - - - - r.r.                                ",
"                                r.C q q q q q q q q q q q q q q q q q q q q q q q q q q q q r.r.                                ",
"                                    r.r.r.r.r.r.r.r.r.r.r.r.r.r.r.r.r.r.r.r.r.r.r.r.r.r.r.r.                                    ",
"                                    r.r.r.r.r.r.r.r.r.r.r.r.r.r.r.r.r.r.r.r.r.r.r.r.r.r.r.r.                                    ",
"                                                                                                                                ",
"                                                                                                                                ",
"                                                                                                                                ",
"                                                                                                                                "
};
