/* XPM */
static char *result[] = {
/* columns rows colors chars-per-pixel */
"64 64 81 1 ",
"  c black",
". c #010101",
"X c #020202",
"o c gray1",
"O c #040404",
"+ c gray2",
"@ c #060606",
"# c #070707",
"$ c gray3",
"% c #090909",
"& c gray4",
"* c #0B0B0B",
"= c #0C0C0C",
"- c #0E0E0E",
"; c gray6",
": c #101010",
"> c #111111",
", c gray7",
"< c #131313",
"1 c gray8",
"2 c #151515",
"3 c #161616",
"4 c gray9",
"5 c #181818",
"6 c #191919",
"7 c gray10",
"8 c gray11",
"9 c gray12",
"0 c #202020",
"q c #232323",
"w c gray14",
"e c #272727",
"r c #282828",
"t c #2C2C2C",
"y c gray19",
"u c #323232",
"i c gray20",
"p c #343434",
"a c #353535",
"s c #373737",
"d c #393939",
"f c #3E3E3E",
"g c #3F3F3F",
"h c gray25",
"j c #434343",
"k c #464646",
"l c gray28",
"z c #494949",
"x c #4E4E4E",
"c c gray31",
"v c #505050",
"b c gray32",
"n c #565656",
"m c gray34",
"M c #5A5A5A",
"N c #5D5D5D",
"B c gray39",
"V c DimGray",
"C c #6A6A6A",
"Z c #767676",
"A c #777777",
"S c gray49",
"D c gray50",
"F c #808080",
"G c #888888",
"H c #989898",
"J c gray66",
"K c #AEAEAE",
"L c #B1B1B1",
"P c #B2B2B2",
"I c #B4B4B4",
"U c gray71",
"Y c gray83",
"T c gray87",
"R c #E7E7E7",
"E c #E9E9E9",
"W c #ECECEC",
"Q c #F1F1F1",
"! c gray95",
"~ c #F8F8F8",
"^ c #FBFBFB",
/* pixels */
"                 .  X                            XO fC=X  X.XO..",
"                ..o ..                             $FQ9.OXdb=   ",
"              ....#@X..                           XO7so O#J!4.X ",
"             ....X&2% .                          . oOO#X..fm$...",
"                  %-+X+.      O o.                              ",
"                  X+..X      . @oX                              ",
"                     .X      o.                                 ",
"                   ....     .XooOX                              ",
"                             o$yi+                              ",
"                             o#LY5.  .   . ..                   ",
"                             ++lm$   X..XXo.                    ",
"                             X..Xo   X.$7;X..                   ",
"                             . @o .  . @5-XX.                   ",
"                             .oo.O.  X  X.o.                    ",
"  ...o X.                    ...     ..XXX             .        ",
"   X++o.X.                                             .*+      ",
"   XpPkoX.                                             &9>      ",
"  .XgQM+X.                                              %o      ",
"   O+1&XX.                                            .X. .     ",
"  .X..X X.                                              X..     ",
"                                                                ",
"                                                                ",
"                                                                ",
"                                                                ",
"                                                                ",
"  .                                    . X X.. .X               ",
"   ...                                 X.. ..    .              ",
"     .                                  X OXX.X                 ",
" .X.                                   . #o@o .. .              ",
" O@$O                                  o+o6j5oO+                ",
"                          .  XX  .     .O.m^v@Oo                ",
"                            .o...      ..oeZw....               ",
"                           +=5@         .ooO.   O               ",
"                           o&1O ..      X.X.... o               ",
"                           .XX .X      oX  .X X X               ",
"                          ....  .      . . .. .                 ",
"                                                                ",
"                                                                ",
"                                                                ",
"                                                                ",
"         .  .X. .                                               ",
"        . XO .X.X                                               ",
"        .O @XOO.X..                                             ",
"        .  #-u3 o                                               ",
"        ..X hWZoo..                                             ",
"        .  $qDaX#.                                              ",
"                                                                ",
"                                                                ",
"                                                                ",
"                                                                ",
"                                                                ",
"                        XX  ..  ..      X Oo+.#..               ",
"                        @o  .X.        X XXO X.. o              ",
"                       o.@.@.X.        Xoo$6&.#XO               ",
"                      ..:o+o@X.        ...xRcX%+X.              ",
"                      ..=ztO .  ..     X$lAUVj#O X              ",
"                      .X>~G@=*   .     X<EK$IT5$  ..            ",
"                      .X-Bi#,8$OX       &NDHSM*#@X..            ",
"                      ..# -0&&5>..      &.n~bo62@...            ",
"                      ..@o&6-;4;.o     X X,r>X<,.o..            ",
"                      .X.o X;4#X       $X@.@X  X  ..            ",
"                          ..+*+o.         X .   .               ",
"                             X.                                 ",
"                                ..                              "
};
