/* XPM */
static char *_9d8687106f844aee36ddd6903f5c2bfzvBC6hWIV6wAOmdu[] = {
/* columns rows colors chars-per-pixel */
"64 64 182 2 ",
"   c #010101",
".  c #080507",
"X  c #090608",
"o  c #0C0A0B",
"O  c #110D0E",
"+  c #12100F",
"@  c #120E11",
"#  c #1A0F19",
"$  c #141313",
"%  c #191313",
"&  c #191618",
"*  c #1C1A1B",
"=  c #201817",
"-  c #211D1A",
";  c #2D1E1E",
":  c #2C221E",
">  c #211F21",
",  c #2B172B",
"<  c #2D192C",
"1  c #351029",
"2  c #361A31",
"3  c #3C1E38",
"4  c #252324",
"5  c #282527",
"6  c #292728",
"7  c #2D2B2C",
"8  c #342A26",
"9  c #322D2E",
"0  c #332627",
"q  c #302030",
"w  c #392338",
"e  c #392337",
"r  c #343333",
"t  c #3C3A3B",
"y  c #3B373B",
"u  c #403E3E",
"i  c #5F393F",
"p  c #4E0F31",
"a  c #4A4537",
"s  c #49443D",
"d  c #46433E",
"f  c #5B453B",
"g  c #644E3F",
"h  c #4A2C47",
"j  c #4B2F4B",
"k  c #5D254D",
"l  c #4E334D",
"z  c #443743",
"x  c #593859",
"c  c #633C44",
"v  c #663C66",
"b  c #454344",
"n  c #4C4A4B",
"m  c #4A4847",
"M  c #5F4F42",
"N  c #55514D",
"B  c #504F50",
"V  c #574156",
"C  c #545353",
"Z  c #5B5A5B",
"A  c #6C5645",
"S  c #6F5B4B",
"D  c #735B4A",
"F  c #725B47",
"G  c #605E5F",
"H  c #644160",
"J  c #615F61",
"K  c #625463",
"L  c #7B4C7A",
"P  c #626161",
"I  c #696769",
"U  c #6B6A6A",
"Y  c #686667",
"T  c #706E6F",
"R  c #757474",
"E  c #7D7C7C",
"W  c #886F58",
"Q  c #807F7F",
"!  c #997A64",
"~  c #AB896B",
"^  c #C29B7A",
"/  c #C89E7D",
"(  c #FA349D",
")  c #FA35A1",
"_  c #F939A5",
"`  c #F635A2",
"'  c #935894",
"]  c #B85EA7",
"[  c #BA77B8",
"{  c #F946AF",
"}  c #F440AE",
"|  c #F649B5",
" . c #F94FB8",
".. c #F952BC",
"X. c #F55BC4",
"o. c #F85EC6",
"O. c #F857C3",
"+. c #CD7FCC",
"@. c #D270C7",
"#. c #E16BC7",
"$. c #F964CD",
"%. c #F560C5",
"&. c #F66CD4",
"*. c #F96BD4",
"=. c #F771D7",
"-. c #F974DB",
";. c #FB7ADE",
":. c #F874C7",
">. c #F97BE2",
",. c #848384",
"<. c #888686",
"1. c #8D8C8C",
"2. c #918E8F",
"3. c #988E8D",
"4. c #90908F",
"5. c #918F90",
"6. c #939292",
"7. c #9B9696",
"8. c #989897",
"9. c #9B979A",
"0. c #9A9999",
"q. c #979896",
"w. c #A3979A",
"e. c #A09F9F",
"r. c #A19797",
"t. c #B6999A",
"y. c #B8999A",
"u. c #A9858A",
"i. c #A0A09F",
"p. c #A2A2A2",
"a. c gray68",
"s. c #B3B3B3",
"d. c gray72",
"f. c #D4959B",
"g. c #EE9195",
"h. c #ED979C",
"j. c #E39A9E",
"k. c #EC989C",
"l. c #FC979A",
"z. c #F4999C",
"x. c #FC989B",
"c. c #D1A983",
"v. c #E0B48A",
"b. c #EABC92",
"n. c #FCBEB6",
"m. c #FCBBBC",
"M. c #FCCA9A",
"N. c #FCC5A3",
"B. c #FCC3AA",
"V. c #FCC0B7",
"C. c #CC80CA",
"Z. c #FCB5C4",
"A. c #FCB2CD",
"S. c #FCB9C0",
"D. c #FCAAD7",
"F. c #FCAAD9",
"G. c #ED8BE8",
"H. c #FA82E6",
"J. c #F985EB",
"K. c #F08FEF",
"L. c #FB8AEE",
"P. c #E394E3",
"I. c #FC9FEB",
"U. c #FA8DF2",
"Y. c #FC91F5",
"T. c #FC97FC",
"R. c #FC96FA",
"E. c #FB9AFA",
"W. c #FC99FB",
"Q. c #FC9AFA",
"!. c #FC98FC",
"~. c #FC99FC",
"^. c #FC9AFC",
"/. c #FC99FC",
"(. c #FC9DF4",
"). c #FCA0EB",
"_. c #FCA1EC",
"`. c #CBCBCB",
"'. c #E4E4E4",
"]. c #EBEBEB",
"[. c #FBFDFB",
"{. c #F4F4F4",
/* pixels */
"                                                                                                                                ",
"                                                                                                                                ",
"                        .                                                                                                       ",
"                  . .   .                                                                                                       ",
"                    .                                                                                                           ",
"                                                                                                                                ",
"                o .                                                                                                             ",
"                . 4 7 $                                                                                       . o               ",
"                * s.`.C                                                                                   . . 7 C r .           ",
"                & d.`.Z . . .                                                                             o   E '.q.$           ",
"              . o r b *   . .                                                                             .   Y s.R $           ",
"                .     . .             . .                                                                 o   $ 4 & .           ",
"                  .           . .   . o O . .                                                       .     .                     ",
"                              . o                                                                             . .               ",
"                  .       o . + M A A A A A A A A A A A A A A A A A A A A A A A A A A A A A A A A A :   .                       ",
"                          . X * c.M.M.M.M.M.M.M.M.M.M.M.M.M.M.M.M.M.M.M.M.M.M.M.M.M.M.M.M.M.M.M.M.M.f                           ",
"                      . . O W ~ b.M.M.M.Z.F.F.F.F.F.F.F.F.F.F.F.F.F.F.D.D.D.D.D.D.D.D.D.F.D.N.M.M.M.^ ! $                       ",
"                      o . O c.M.M.M.M.M.F.!.!.!.!.!.!.!.!.!.T.!.T.!.!.!.!.!.!.!.!.!.!.!.!.W.N.M.M.M.M.b.%                     . ",
"                      o . O c.M.M.M.S.A._.!.!.!.!.!.!.!.!.!.=.*.U.!.!.!.>.*.T.!.!.!.!.T.!.W.A.Z.B.M.M.b.%                     . ",
"                      o . O c.M.M.N.).T.!.!.!.!.!.!.!.!.!.!.{ ( H.!.!.!.o.` Y.!.!.!.!.!.!.!.W.W.m.M.M.b.%                       ",
"                      o . O c.M.m.A.(.T.>.*.L.!.!.!.!.!.!.!.*.o.L.!.!.E.k p h j +.!.!.!.!.!.!.W.F.Z.B.b.%       o . . .         ",
"                      o . O c.N.).W.!.T. .( -.!.!.!.!.!.!.!.!.W.!.!.!.E.#       [ !.!.!.!.!.!.!.W.W.m.b.%   .   o               ",
"                      o . O c.N.I.!.!.T.$...H.!.!.!.!.!.!.!.!.!.!.!.' l U U U U V l C.T.>.;.T.!.!.T.m.b.%   6 5 Z U U I 4 .     ",
"                      o . O c.N.).!.!.!.T.T.T.!.!.!.!.!.!.!.!.!.!.!.v   1.0.0.0.7   [ T.} _ Y.!.!.T.m.b.%       R q.0.6.5       ",
"                      . . O c.N.I.!.!.!.!.!.T.!.!.!.!.!.!.!.!.!.!.!.v . 6.0.0.0.1.,.z < #.&.T.!.!.!.m.b.%   I ,.6.0.0.6.5       ",
"                      . . O c.N.I.!.!.!.!.!.!.!.!.!.!.!.!.!.!.!.!.!.v . 6.0.0.0.0.0.7 . P.W.E.E.W.E.m.b.%   E 0.0.0.0.6.5       ",
"    .                 o . O c.N.).!.!.!.!.!.!.!.!.!.!.!.-.$.U.!.!.!.v . 6.0.0.0.0.0.1.,.q < , , < < ; 8 E ,.q.0.0.0.0.6.5       ",
"    %                 o . O c.N.).!.!.!.!.!.!.!.!.!.!.!...( J.!.!.!.v . 6.0.0.0.0.0.0.0.O             o 1.0.0.0.0.0.0.6.5       ",
"4 - u r r r r &       o . O c.N.I.!.!.!.!.!.!.!.!.!.!.!.$...U.!.!.!.v . 6.0.0.0.0.0.0.0.U Y Y Y I I I I q.0.0.0.0.0.0.6.5       ",
"4   T 0.0.0.$   .     o . O c.N.I.!.!.!.!.!.!.!.!.!.!.!.!.!.!.!.!.!.v   1.0.0.0.0.0.0.0.0.0.0.0.0.0.0.0.0.0.0.0.0.0.0.6.5       ",
"4   T 0.0.0.$   7 4 4 5 o O c.N.I.!.!.!.!.W.&.X.U.!.!.!.!.!.T.T.L x K Y q.0.0.0.0.0.0.0.0.0.0.0.0.0.0.0.0.0.0.0.0.0.0.8.R Y t > ",
"4   T 0.0.0.$             O c.N.I.!.!.!.!.R..._ L.!.!.!.!.!.!.T.3   J 0.0.0.0.0.e.i.6.6.0.0.0.0.0.0.0.0.0.0.0.e.q.6.0.0.0.0.y   ",
"& * C Z q.8.B m m m m b o O c.N.I.!.!.!.!.T.=.$.Y.!.!.!.!.!.-.&.2   J 0.0.0.0.0.'.[.m X 1.0.0.0.0.0.0.0.0.0.].[.b O E 0.0.0.t   ",
"    $ @ q.0.0.0.8.0.0.6.& O c.N.I.!.!.!.!.!.!.!.!.!.!.!.!.T.| ( 1   J 0.0.0.0.0.'.[.b   1.0.0.0.0.0.0.0.0.0.].[.u o E 0.0.0.y   ",
"    - r C C Z Z 2.q.0.6.& O c.N.).T.-.*.U.!.!.!.!.!.!.!.!.!.&.%.2   P 0.0.0.0.8.b 5 o   1.0.0.0.0.1.- 4 1.0.t 5 o o E 0.0.0.y   ",
"      o         <.8.0.6.& O c.N.).U.{ ) >.!.!.!.!.!.!.!.!.!.!.!.w   P 0.0.0.0.0.7       1.0.0.0.0.1.o O 1.0.>     o E 0.0.0.y   ",
"      o 5 7 7 7 R E E R $ O c.N.I.Y.X.| >.!.!.!.!.!.!.!.!.!.!.!.w   P 7.j.h.h.h.u.<.<.<.q.0.0.0.0.8.,.<.9.0.<.,.,.<.f.k.k.h.c   ",
"                $         O c.N.I.!.!.!.!.!.!.!.!.!.!.!.!.!.!.!.e   J 7.z.l.l.x.y.0.6.1.0.0.0.0.6.6.0.0.0.0.6.5.q.r.k.x.l.l.i   ",
"                & 5 5 7 o O c.N.I.!.!.!.!.!.!.!.!.T.*.O.J.!.!.!.w   P 7.z.x.x.x.y.0.9 X 1.0.0.0.r $ 6.0.0.0.4 X R w.k.l.x.l.i   ",
"                      o . O c.N.).!.!.!.!.!.!.!.!.T. .( >.!.!.W.h # J 3.k.z.z.z.y.0.7   ,.2.2.5.9 O 1.6.6.6.>   R 0.j.z.g.g.c O ",
"                      o . O c.M.S.A.(.T.&.X.J.!.!.W.>.=.U.!.!.!.K.G.H o 3.w.w.w.9.0.7   o o o o .   o o o o X   R 0.r.7.9 O o   ",
"                      o X O c.M.M.N._.T...) -.!.!.!.!.!.!.!.!.!.!.!.v . 2.0.0.0.0.0.7                           R 0.9.6.5       ",
"                  o & & . O c.M.M.M.A.D.:.o.J.!.!.!.!.!.!.!.!.!.!.!.@.] q 4 6.0.0.0.<.E E E E E E E E E E E E E 6.6.y 6 4       ",
"                  o .     O c.M.M.M.M.M.F.W.W.!.!.!.!.!.!.W.W.W.!.!.!.E.#   1.0.0.0.0.0.0.0.0.0.0.0.0.0.0.0.0.0.0.6.4 o o .     ",
"                & 5 R R $ . 8 f v.M.M.M.B.n.n.n.n.n.V.V.n.n.n.n.V.V.V.V./ ^ 9 5 5 5 5 5 5 4 4 5 5 5 5 5 5 5 5 5 5 7 4   .       ",
"                $ * 1.4.&     = c.M.M.M.M.M.M.M.M.M.M.M.M.M.M.M.M.M.M.M.M.M.8 - - - - - - - - - - - o . > 4 o     o o r 1.R o   ",
"            $ $ C P 6.q.G C $ O g D D D D D D D D D D D D D D F D D D D D S s d s a a a a a a a a a N Z C C $     . o C '.{.4   ",
"            &   <.0.0.0.0.6.*                                                                       Y 2.@           . r 0.p.$ . ",
"            &   <.0.0.6.C n & o X o b C C C * . o                     o o   n C C C &   & . o   t C ,.2.@             . $ $ .   ",
"            &   Q 6.6.1.* O $ & o @ E 6.6.2.r . o                       o   1.6.6.6.9   4   * O U 6.q.1.@           .     . .   ",
"            &   4 6 6 r $   o $ o . 4 6 6 7 *               .     .     o   5 6 6 6 7   .   o o 7 6 6 5 .                       ",
"            &         $ .   . o o                                       o           7           @                               ",
"            o         .       .                               . o       .           o           .                               ",
"                                                                                                                                ",
"                                                        .         o                                                             ",
"                                                            . o $ o                                                             ",
"                                                            . b p.R o                                                           ",
"                                                          . . I ].a.&                                                           ",
"                                                          o . r R C o                                                           ",
"                                                                . .                 . o o .                                     ",
"                                                                                    o & * o                                     ",
"                                                                .                   . $ $ o                                     ",
"                                                                                                                                ",
"                                                                                                                                "
};
