/* XPM */
static char *fd357914d7f845ddff12f354959844ddvNAE9H2hjVwl0Gcy[] = {
/* columns rows colors chars-per-pixel */
"64 64 4 1 ",
"  c None",
". c #F83800",
"X c #FFA347",
"o c white",
/* pixels */
"                                    ....            ....        ",
"                                    ....            ....        ",
"                                    ....            ....        ",
"                                    ....            ....        ",
"            XXXX    ....        ....                ....        ",
"            XXXX    ....        ....                ....        ",
"            XXXX    ....        ....                ....        ",
"            XXXX    ....        ....                ....        ",
"        ....    ....        ........    ....                    ",
"        ....    ....        ........    ....                    ",
"        ....    ....        ........    ....                    ",
"        ....    ....        ........    ....                    ",
"        ....    ....    ....................        XXXX        ",
"        ....    ....    ....................        XXXX        ",
"        ....    ....    ....................        XXXX        ",
"        ....    ....    ....................        XXXX        ",
"                ............................    ....            ",
"                ............................    ....            ",
"                ............................    ....            ",
"                ............................    ....            ",
"    XXXX....    ........XXXX............    ........    ....    ",
"    XXXX....    ........XXXX............    ........    ....    ",
"    XXXX....    ........XXXX............    ........    ....    ",
"    XXXX....    ........XXXX............    ........    ....    ",
"    ................XXXX................XXXX................    ",
"    ................XXXX................XXXX................    ",
"    ................XXXX................XXXX................    ",
"    ................XXXX................XXXX................    ",
"    ................XXXX....XXXX........................    ....",
"    ................XXXX....XXXX........................    ....",
"    ................XXXX....XXXX........................    ....",
"    ................XXXX....XXXX........................    ....",
"    ............XXXXXXXX....XXXX....XXXX................    ....",
"    ............XXXXXXXX....XXXX....XXXX................    ....",
"    ............XXXXXXXX....XXXX....XXXX................    ....",
"    ............XXXXXXXX....XXXX....XXXX................    ....",
"....    ....XXXXXXXXXXXXXXXXXXXXXXXX....XXXX....................",
"....    ....XXXXXXXXXXXXXXXXXXXXXXXX....XXXX....................",
"....    ....XXXXXXXXXXXXXXXXXXXXXXXX....XXXX....................",
"....    ....XXXXXXXXXXXXXXXXXXXXXXXX....XXXX....................",
"............XXXX....XXXXXXXXooooXXXXXXXXXXXXXXXX................",
"............XXXX....XXXXXXXXooooXXXXXXXXXXXXXXXX................",
"............XXXX....XXXXXXXXooooXXXXXXXXXXXXXXXX................",
"............XXXX....XXXXXXXXooooXXXXXXXXXXXXXXXX................",
"............XXXXXXXXooooXXXXooooXXXXooooXXXXXXXXXXXX........    ",
"............XXXXXXXXooooXXXXooooXXXXooooXXXXXXXXXXXX........    ",
"............XXXXXXXXooooXXXXooooXXXXooooXXXXXXXXXXXX........    ",
"............XXXXXXXXooooXXXXooooXXXXooooXXXXXXXXXXXX........    ",
"    ............XXXXXXXXooooooooooooooooooooXXXXXXXX........    ",
"    ............XXXXXXXXooooooooooooooooooooXXXXXXXX........    ",
"    ............XXXXXXXXooooooooooooooooooooXXXXXXXX........    ",
"    ............XXXXXXXXooooooooooooooooooooXXXXXXXX........    ",
"    ............XXXXXXXXooooooooooooooooXXXXXXXX........        ",
"    ............XXXXXXXXooooooooooooooooXXXXXXXX........        ",
"    ............XXXXXXXXooooooooooooooooXXXXXXXX........        ",
"    ............XXXXXXXXooooooooooooooooXXXXXXXX........        ",
"        ................XXXXXXXXXXXXXXXXXXXX............        ",
"        ................XXXXXXXXXXXXXXXXXXXX............        ",
"        ................XXXXXXXXXXXXXXXXXXXX............        ",
"        ................XXXXXXXXXXXXXXXXXXXX............        ",
"                    ............................                ",
"                    ............................                ",
"                    ............................                ",
"                    ............................                "
};
